<svg width="22" height="23" viewBox="0 0 22 23" fill="none" xmlns="http://www.w3.org/2000/svg">
<path d="M4.98145 11.5621C4.98145 11.7154 5.01164 11.8673 5.07032 12.0089C5.129 12.1506 5.215 12.2793 5.32342 12.3877C5.43184 12.4961 5.56055 12.5821 5.70221 12.6408C5.84386 12.6995 5.99569 12.7297 6.14902 12.7297C6.30234 12.7297 6.45417 12.6995 6.59583 12.6408C6.73748 12.5821 6.86619 12.4961 6.97461 12.3877C7.08303 12.2793 7.16904 12.1506 7.22771 12.0089C7.28639 11.8673 7.31659 11.7154 7.31659 11.5621C7.31659 11.4088 7.28639 11.2569 7.22771 11.1153C7.16904 10.9736 7.08303 10.8449 6.97461 10.7365C6.86619 10.6281 6.73748 10.5421 6.59583 10.4834C6.45417 10.4247 6.30234 10.3945 6.14902 10.3945C5.99569 10.3945 5.84386 10.4247 5.70221 10.4834C5.56055 10.5421 5.43184 10.6281 5.32342 10.7365C5.215 10.8449 5.129 10.9736 5.07032 11.1153C5.01164 11.2569 4.98145 11.4088 4.98145 11.5621Z" fill="#B7BACE"/>
<path d="M9.89535 11.5621C9.89535 11.8718 10.0184 12.1687 10.2373 12.3877C10.4563 12.6067 10.7533 12.7297 11.0629 12.7297C11.3726 12.7297 11.6696 12.6067 11.8885 12.3877C12.1075 12.1687 12.2305 11.8718 12.2305 11.5621C12.2305 11.2524 12.1075 10.9555 11.8885 10.7365C11.6696 10.5175 11.3726 10.3945 11.0629 10.3945C10.7533 10.3945 10.4563 10.5175 10.2373 10.7365C10.0184 10.9555 9.89535 11.2524 9.89535 11.5621Z" fill="#B7BACE"/>
<path d="M15.1511 12.3877C14.9321 12.1687 14.8091 11.8718 14.8091 11.5621C14.8091 11.2524 14.9321 10.9555 15.1511 10.7365C15.3701 10.5175 15.667 10.3945 15.9767 10.3945C16.2864 10.3945 16.5833 10.5175 16.8023 10.7365C17.0213 10.9555 17.1443 11.2524 17.1443 11.5621C17.1443 11.8718 17.0213 12.1687 16.8023 12.3877C16.5833 12.6067 16.2864 12.7297 15.9767 12.7297C15.667 12.7297 15.3701 12.6067 15.1511 12.3877Z" fill="#B7BACE"/>
<path d="M11 2.07143C12.4603 2.07095 13.9007 2.40967 15.2078 3.06088C16.5148 3.7121 17.6527 4.65801 18.5318 5.82405C19.4109 6.9901 20.0071 8.34439 20.2735 9.78018C20.5399 11.216 20.4691 12.694 20.0667 14.0978C19.6644 15.5016 18.9415 16.7927 17.955 17.8694C16.9685 18.9461 15.7454 19.7789 14.3821 20.3023C13.0188 20.8256 11.5526 21.0251 10.0991 20.8851C8.6455 20.7451 7.24433 20.2694 6.006 19.4954C5.7834 19.3569 5.52984 19.2758 5.26814 19.2597C5.00644 19.2435 4.74483 19.2926 4.50686 19.4027L1.58086 20.7714V12.0343V11.8881C1.57143 11.7609 1.57143 11.6257 1.57143 11.5C1.57434 9.00028 2.56864 6.60378 4.33621 4.83621C6.10378 3.06864 8.50028 2.07434 11 2.07143ZM11 0.5C8.08262 0.5 5.28472 1.65892 3.22182 3.72182C1.15892 5.78472 0 8.58262 0 11.5C0 11.6571 -4.82957e-08 11.8017 0.011 11.951V21.1957C0.0099735 21.4147 0.0644378 21.6304 0.169311 21.8226C0.274184 22.0149 0.426048 22.1774 0.610732 22.2951C0.795417 22.4128 1.0069 22.4818 1.22546 22.4956C1.44401 22.5095 1.66251 22.4677 1.86057 22.3743L5.17314 20.8296C6.61788 21.732 8.25247 22.2865 9.94807 22.4495C11.6437 22.6125 13.354 22.3795 14.9441 21.7688C16.5343 21.1581 17.961 20.1865 19.1116 18.9304C20.2623 17.6744 21.1055 16.1683 21.5748 14.5308C22.0441 12.8933 22.1268 11.1692 21.8162 9.49432C21.5056 7.81946 20.8103 6.23961 19.785 4.87929C18.7598 3.51897 17.4326 2.41534 15.9081 1.65538C14.3836 0.895427 12.7034 0.499909 11 0.5Z" fill="#B7BACE"/>
</svg>
