<svg width="22" height="23" viewBox="0 0 22 23" fill="none" xmlns="http://www.w3.org/2000/svg">
<path d="M14.702 20H7.29801C5.75187 20 4.45896 18.8249 4.31165 17.2858L3.68423 10.7304C3.57205 9.55837 4.15586 8.42904 5.17698 7.84284L9.5064 5.35744C10.4313 4.82645 11.5687 4.82645 12.4936 5.35744L16.823 7.84284C17.8441 8.42904 18.4279 9.55837 18.3158 10.7304L17.6883 17.2858C17.541 18.8249 16.2481 20 14.702 20Z" fill="#586BF9" fill-opacity="0.15"/>
<path fill-rule="evenodd" clip-rule="evenodd" d="M13.3114 1.10143C11.8791 0.299522 10.1209 0.299523 8.68861 1.10143L2.34744 4.65182C0.756354 5.54267 -0.153926 7.2647 0.0214704 9.05201L0.936102 18.3722C1.16583 20.7132 3.17322 22.5 5.57346 22.5H16.4265C18.8268 22.5 20.8342 20.7132 21.0639 18.3722L21.9785 9.05201C22.1539 7.2647 21.2436 5.54267 19.6526 4.65182L13.3114 1.10143ZM9.41853 2.353C10.3985 1.80432 11.6015 1.80432 12.5815 2.35299L18.9226 5.90339C20.0113 6.51291 20.6341 7.69115 20.5141 8.91404L19.5995 18.2342C19.4423 19.8359 18.0688 21.0585 16.4265 21.0585H15.5V15.2401C15.5 13.1745 13.8466 11.5 11.807 11.5H10.193C8.15342 11.5 6.5 13.1745 6.5 15.2401V21.0585H5.57346C3.93119 21.0585 2.55772 19.8359 2.40053 18.2342L1.4859 8.91404C1.36589 7.69114 1.98871 6.51291 3.07735 5.90339L9.41853 2.353ZM7.9772 21.0585H14.0228V15.2401C14.0228 14.0007 13.0307 12.996 11.807 12.996H10.193C8.96925 12.996 7.9772 14.0007 7.9772 15.2401V21.0585Z" fill="#586BF9"/>
</svg>
