<svg width="41" height="41" viewBox="0 0 41 41" fill="none" xmlns="http://www.w3.org/2000/svg">
<circle cx="20.5" cy="20.5" r="20" fill="#586BF9"/>
<path d="M15.4231 29.8077C15.8744 29.8077 16.2692 30.2025 16.2692 30.6539C16.2692 31.1052 15.8744 31.5 15.4231 31.5H12.6026C10.9103 31.5 9.5 30.0897 9.5 28.3974V25.5769C9.5 25.1256 9.89485 24.7308 10.3462 24.7308C10.7975 24.7308 11.1923 25.1256 11.1923 25.5769V28.3974C11.1923 29.1872 11.8128 29.8077 12.6026 29.8077H15.4231ZM29.8077 25.5769C29.8077 25.1256 30.2025 24.7308 30.6539 24.7308C31.1052 24.7308 31.5 25.1256 31.5 25.5769V28.3974C31.5 30.0897 30.0897 31.5 28.3974 31.5H25.5769C25.1256 31.5 24.7308 31.1052 24.7308 30.6538C24.7308 30.2025 25.1256 29.8077 25.5769 29.8077H28.3974C29.1872 29.8077 29.8077 29.1872 29.8077 28.3974V25.5769ZM25.5769 11.1923C25.1256 11.1923 24.7308 10.7975 24.7308 10.3461C24.7308 9.8948 25.1256 9.5 25.5769 9.5H28.3974C30.0897 9.5 31.5 10.9103 31.5 12.6026V15.9872C31.5 16.4385 31.1052 16.8333 30.6538 16.8333C30.2025 16.8333 29.8077 16.4384 29.8077 15.9871V12.6026C29.8077 11.8128 29.1872 11.1923 28.3974 11.1923H25.5769ZM11.1923 15.4231C11.1923 15.8744 10.7975 16.2692 10.3461 16.2692C9.8948 16.2692 9.5 15.8744 9.5 15.4231V12.6026C9.5 10.9103 10.9103 9.5 12.6026 9.5H15.4231C15.8744 9.5 16.2692 9.89485 16.2692 10.3462C16.2692 10.7975 15.8744 11.1923 15.4231 11.1923H12.6026C11.8128 11.1923 11.1923 11.8128 11.1923 12.6026V15.4231ZM14.859 21.3462C14.4077 21.3462 14.0128 20.9513 14.0128 20.5C14.0128 20.0487 14.4077 19.6538 14.859 19.6538H26.141C26.5923 19.6538 26.9872 20.0487 26.9872 20.5C26.9872 20.9513 26.5923 21.3462 26.141 21.3462H14.859V21.3462Z" fill="white"/>
</svg>
