<svg width="22" height="23" viewBox="0 0 22 23" fill="none" xmlns="http://www.w3.org/2000/svg">
<circle cx="13" cy="14" r="7" fill="#E5E9FE"/>
<path d="M12.032 10.1487L12.5378 5.45424C12.5351 5.4197 12.5255 5.38604 12.5097 5.35524C12.4956 5.34116 12.4815 5.32708 12.4393 5.32708H12.2985C12.2786 5.32773 12.2593 5.3332 12.242 5.34301C12.2248 5.35282 12.2102 5.36668 12.1995 5.3834L7.33527 12.5731C7.32119 12.6013 7.32119 12.6576 7.32119 12.6858C7.33527 12.7139 7.39159 12.7562 7.43427 12.7562H9.94359L9.28095 17.55C9.28095 17.5782 9.28095 17.6204 9.29503 17.6486C9.30911 17.6627 9.36543 17.6768 9.39403 17.6768H9.47851C9.50667 17.6768 9.54891 17.6627 9.57707 17.6204L14.6811 10.3322C14.6952 10.304 14.6952 10.2472 14.6952 10.2191C14.6811 10.1909 14.6248 10.1487 14.5825 10.1487H12.032Z" fill="#586BF9"/>
<path d="M1.7521 19.1424V17.4506C3.3031 19.8614 5.74247 21.5673 8.53383 22.2154C14.4694 23.583 20.391 19.8896 21.7444 13.9688C21.77 13.8906 21.789 13.8104 21.8012 13.729C21.8037 13.7022 21.8064 13.677 21.8089 13.6532C21.8341 13.4151 21.8435 13.3267 21.5614 13.2498C21.3498 13.1922 20.83 13.0427 20.3956 12.9131C19.7131 17.4896 15.7665 21 11 21C5.87341 21 1.69526 16.9392 1.50665 11.8587C1.38871 11.7943 1.2595 11.7399 1.11762 11.6988C0.49766 11.5158 -0.052341 11.558 0.00397906 12.3474V19.1424C0.00525104 19.3739 0.0977854 19.5955 0.261482 19.7591C0.42518 19.9227 0.646818 20.0151 0.87826 20.0163C1.35742 20.0163 1.7521 19.622 1.7521 19.1424Z" fill="#586BF9"/>
<path fill-rule="evenodd" clip-rule="evenodd" d="M1.60449 10.0862C2.28726 5.51003 6.23373 2 11 2C16.2271 2 20.4682 6.22161 20.4998 11.4413C20.7332 11.5271 21.0157 11.5537 21.3638 11.5017C21.7026 11.5017 22.0264 11.2905 21.9983 10.6982V3.87461C21.9983 3.395 21.6036 3.00032 21.124 3.00032C20.6448 3.00032 20.2502 3.39544 20.2502 3.87461V5.51635C18.6982 3.1058 16.2641 1.39822 13.4684 0.759801C7.67363 -0.565501 1.6113 3.32504 0.440899 9.11906C0.35498 9.5617 0.40816 9.58638 0.647368 9.69736C0.682562 9.71368 0.721783 9.73188 0.765181 9.75355C0.944394 9.8349 1.29309 9.97748 1.60449 10.0862Z" fill="#586BF9"/>
</svg>
