<svg width="22" height="23" viewBox="0 0 22 23" fill="none" xmlns="http://www.w3.org/2000/svg">
<circle cx="12.5" cy="14" r="7" fill="#E5E9FE"/>
<path d="M5 11.6676C5 11.8209 5.0302 11.9727 5.08888 12.1144C5.14755 12.256 5.23355 12.3847 5.34197 12.4932C5.45039 12.6016 5.5791 12.6876 5.72076 12.7463C5.86242 12.8049 6.01424 12.8351 6.16757 12.8351C6.3209 12.8351 6.47272 12.8049 6.61438 12.7463C6.75604 12.6876 6.88475 12.6016 6.99317 12.4932C7.10159 12.3847 7.18759 12.256 7.24627 12.1144C7.30494 11.9727 7.33514 11.8209 7.33514 11.6676C7.33514 11.5142 7.30494 11.3624 7.24627 11.2208C7.18759 11.0791 7.10159 10.9504 6.99317 10.842C6.88475 10.7336 6.75604 10.6476 6.61438 10.5889C6.47272 10.5302 6.3209 10.5 6.16757 10.5C6.01424 10.5 5.86242 10.5302 5.72076 10.5889C5.5791 10.6476 5.45039 10.7336 5.34197 10.842C5.23355 10.9504 5.14755 11.0791 5.08888 11.2208C5.0302 11.3624 5 11.5142 5 11.6676Z" fill="#586BF9"/>
<path d="M9.91391 11.6676C9.91391 11.9772 10.0369 12.2742 10.2559 12.4932C10.4748 12.7121 10.7718 12.8351 11.0815 12.8351C11.3911 12.8351 11.6881 12.7121 11.9071 12.4932C12.126 12.2742 12.249 11.9772 12.249 11.6676C12.249 11.3579 12.126 11.0609 11.9071 10.842C11.6881 10.623 11.3911 10.5 11.0815 10.5C10.7718 10.5 10.4748 10.623 10.2559 10.842C10.0369 11.0609 9.91391 11.3579 9.91391 11.6676Z" fill="#586BF9"/>
<path d="M14.8277 11.6676C14.8277 11.9772 14.9507 12.2742 15.1697 12.4932C15.3886 12.7121 15.6856 12.8351 15.9953 12.8351C16.3049 12.8351 16.6019 12.7121 16.8209 12.4932C17.0398 12.2742 17.1628 11.9772 17.1628 11.6676C17.1628 11.3579 17.0398 11.0609 16.8209 10.842C16.6019 10.623 16.3049 10.5 15.9953 10.5C15.6856 10.5 15.3886 10.623 15.1697 10.842C14.9507 11.0609 14.8277 11.3579 14.8277 11.6676Z" fill="#586BF9"/>
<path fill-rule="evenodd" clip-rule="evenodd" d="M3.22182 3.72182C5.28472 1.65893 8.08262 0.5 11 0.5C12.7034 0.499909 14.3836 0.895427 15.9081 1.65538C17.4326 2.41534 18.7598 3.51897 19.785 4.87929C20.8103 6.23961 21.5056 7.81946 21.8162 9.49432C22.1268 11.1692 22.0441 12.8933 21.5748 14.5308C21.1055 16.1683 20.2623 17.6744 19.1116 18.9304C17.961 20.1865 16.5343 21.1581 14.9441 21.7688C13.354 22.3795 11.6437 22.6125 9.94807 22.4495C8.25247 22.2865 6.61788 21.732 5.17314 20.8296L1.86057 22.3743C1.66251 22.4677 1.44401 22.5095 1.22546 22.4956C1.0069 22.4818 0.795417 22.4128 0.610732 22.2951C0.426048 22.1774 0.274184 22.0149 0.169311 21.8226C0.0644378 21.6304 0.0099735 21.4147 0.011 21.1957V11.951C0 11.8017 0 11.6571 0 11.5C0 8.58262 1.15893 5.78472 3.22182 3.72182ZM15.2078 3.06088C13.9007 2.40967 12.4603 2.07095 11 2.07143C8.50028 2.07434 6.10378 3.06864 4.33621 4.83621C2.56864 6.60378 1.57434 9.00028 1.57143 11.5C1.57143 11.6257 1.57143 11.7609 1.58086 11.8881V20.7714L4.50686 19.4027C4.74483 19.2926 5.00644 19.2435 5.26814 19.2597C5.52984 19.2758 5.7834 19.3569 6.006 19.4954C7.24433 20.2694 8.6455 20.7451 10.0991 20.8851C11.5526 21.0251 13.0188 20.8256 14.3821 20.3023C15.7454 19.7789 16.9685 18.9461 17.955 17.8694C18.9415 16.7927 19.6644 15.5016 20.0667 14.0978C20.4691 12.694 20.5399 11.216 20.2735 9.78018C20.0071 8.34439 19.4109 6.9901 18.5318 5.82405C17.6527 4.65801 16.5148 3.7121 15.2078 3.06088Z" fill="#586BF9"/>
</svg>
