<svg fill="none" height="14" viewBox="0 0 15 14" width="15" xmlns="http://www.w3.org/2000/svg"><path d="m1.88024.197012.04594.041581 5.6765 5.595387 5.46762-5.389126c.1527-.151889.3592-.239321.5761-.243809.2168-.004488.4269.074321.5859.219762.1589.145441.2542.346112.2658.55958.0116.213473-.0616.423003-.2039.584283l-.0418.04529-5.46847 5.3883 5.46807 5.38914c.1543.1503.2431.3539.2478.5677s-.0752.421-.2227.5778c-.1476.1567-.3512.2508-.5679.2622-.2166.0114-.4292-.0607-.5929-.201l-.046-.042-5.46762-5.38914-5.6765 5.59584c-.15284.1506-.359.2371-.57514.2411-.21614.0039-.425436-.0748-.583897-.2197-.158462-.145-.253749-.3448-.265835-.5576-.012087-.2127.059969-.4218.201023-.5832l.042187-.0453 5.676922-5.59584-5.676504-5.59497c-.151808-.15084-.238589-.35367-.2422-.566098-.003611-.21243.076226-.418014.222822-.573775.146597-.155761.348602-.2496424.563792-.26201785s.42691.05771275.59089.19561285z" fill="#000" opacity=".8"/></svg>