<svg width="30" height="30" viewBox="0 0 30 30" fill="none" xmlns="http://www.w3.org/2000/svg">
<rect width="30" height="30" rx="15" fill="url(#paint0_linear_4288_5922)"/>
<path d="M11.3735 16.5767C10.4343 16.8259 9.88155 17.8318 10.4288 18.6348C11.5647 20.3016 13.4894 21.3977 15.6726 21.3977C18.308 21.3977 20.5668 19.8005 21.5161 17.5302C22.1321 16.0567 21.5161 13.939 18.9266 14.5721L11.3735 16.5767Z" fill="url(#paint1_linear_4288_5922)" fill-opacity="0.4"/>
<path d="M15.6152 10.0845H15.6152L15.6133 10.0845L15.6126 10.0845H15.6124H15.6124H15.6124H15.6124H15.6123C13.1117 10.0845 11.0845 12.1117 11.0845 14.6123C11.0845 17.113 13.1117 19.1402 15.6123 19.1402C16.9888 19.1402 18.2219 18.5259 19.0523 17.5567C19.8528 16.7352 20.7394 16.7351 21.4306 16.9412C21.7771 17.0445 22.074 17.1997 22.2844 17.3294C22.3895 17.3942 22.4728 17.4524 22.5297 17.4943C22.554 17.5123 22.5735 17.5272 22.5878 17.5384C21.4439 20.2621 18.7514 22.1747 15.6123 22.1747C11.4358 22.1747 8.05 18.7889 8.05 14.6123C8.05 10.4358 11.4358 7.05 15.6123 7.05C17.3248 7.05 18.9043 7.61916 20.172 8.57866C20.2404 8.63049 20.3237 8.70464 20.4203 8.79066C20.4479 8.81527 20.4767 8.84085 20.5064 8.86716C20.639 8.98431 20.7904 9.11378 20.9521 9.22787C21.2378 9.4294 21.5679 9.59173 21.8918 9.53912C21.8734 9.56888 21.8504 9.60437 21.8228 9.6442C21.7369 9.76782 21.6063 9.93281 21.4276 10.0978C21.0705 10.4274 20.5223 10.7562 19.7544 10.7562C19.2051 10.7562 18.6317 10.6141 18.007 10.4594C17.9569 10.447 17.9065 10.4345 17.8558 10.422C17.1742 10.2541 16.4347 10.0848 15.6152 10.0845Z" fill="url(#paint2_linear_4288_5922)" stroke="white" stroke-width="0.1"/>
<defs>
<linearGradient id="paint0_linear_4288_5922" x1="15" y1="0" x2="15" y2="30" gradientUnits="userSpaceOnUse">
<stop stop-color="#88FF12"/>
<stop offset="0.65625" stop-color="#1AB339"/>
<stop offset="1" stop-color="#4CCE5F"/>
</linearGradient>
<linearGradient id="paint1_linear_4288_5922" x1="10.7044" y1="14.457" x2="14.4484" y2="22.8891" gradientUnits="userSpaceOnUse">
<stop stop-color="white"/>
<stop offset="0.7" stop-color="#F6DDC0"/>
<stop offset="1" stop-color="#FFFEFB" stop-opacity="0.86"/>
</linearGradient>
<linearGradient id="paint2_linear_4288_5922" x1="9.28174" y1="7" x2="20.0945" y2="20.4507" gradientUnits="userSpaceOnUse">
<stop stop-color="white"/>
<stop offset="0.7" stop-color="white" stop-opacity="0.74"/>
<stop offset="1" stop-color="#FFFEFB" stop-opacity="0.86"/>
</linearGradient>
</defs>
</svg>
