<svg width="30" height="30" viewBox="0 0 30 30" fill="none" xmlns="http://www.w3.org/2000/svg">
<rect width="30" height="30" rx="15" fill="url(#paint0_linear_2633_6507)"/>
<mask id="path-2-inside-1_2633_6507" fill="white">
<path fill-rule="evenodd" clip-rule="evenodd" d="M14.0319 12.5248C14.5034 12.4725 15.8904 12.4464 18.1813 12.4464C21.38 12.4464 22.5745 13.8281 22.933 14.2428C22.9598 14.2739 22.982 14.2995 23 14.3187C22.7424 11.3629 21.1392 9.89212 18.179 9.90875H14.0273V7.47803C14.0273 7.37585 13.9974 7.27606 13.9353 7.1929C13.8587 7.09108 13.747 7.02383 13.6235 7.00522C13.5 6.98662 13.3744 7.01811 13.2729 7.0931L8.19421 10.8711C8.13352 10.9145 8.08407 10.9726 8.05021 11.0404C8.01636 11.1081 7.99913 11.1834 8.00003 11.2597C8.00094 11.336 8.01996 11.4108 8.05542 11.4777C8.09089 11.5446 8.14171 11.6014 8.20342 11.6433L13.282 15.2454C13.3637 15.3022 13.4597 15.3328 13.5581 15.3333C13.818 15.3333 14.0319 15.1195 14.0319 14.8581V12.5248ZM22.8101 18.9606C22.85 18.931 22.8849 18.8949 22.9136 18.8537V18.8513C23.0631 18.6376 23.0148 18.3408 22.7986 18.1864L17.72 14.5816C17.6395 14.527 17.5429 14.4961 17.4463 14.4961C17.1864 14.4961 16.9725 14.7074 16.9725 14.971V17.303C16.501 17.3553 15.1141 17.3814 12.8209 17.3814C9.63636 17.3814 8.4377 16.0145 8.07257 15.5981C8.04318 15.5646 8.01919 15.5372 8 15.5172C8.25761 18.4714 9.86305 19.9413 12.8209 19.9223H16.9725V22.3517C16.972 22.4545 17.0043 22.5547 17.0645 22.6366C17.1411 22.7384 17.2528 22.8056 17.3763 22.8242C17.4998 22.8428 17.6254 22.8113 17.7269 22.7364L22.8101 18.9606Z"/>
</mask>
<path fill-rule="evenodd" clip-rule="evenodd" d="M14.0319 12.5248C14.5034 12.4725 15.8904 12.4464 18.1813 12.4464C21.38 12.4464 22.5745 13.8281 22.933 14.2428C22.9598 14.2739 22.982 14.2995 23 14.3187C22.7424 11.3629 21.1392 9.89212 18.179 9.90875H14.0273V7.47803C14.0273 7.37585 13.9974 7.27606 13.9353 7.1929C13.8587 7.09108 13.747 7.02383 13.6235 7.00522C13.5 6.98662 13.3744 7.01811 13.2729 7.0931L8.19421 10.8711C8.13352 10.9145 8.08407 10.9726 8.05021 11.0404C8.01636 11.1081 7.99913 11.1834 8.00003 11.2597C8.00094 11.336 8.01996 11.4108 8.05542 11.4777C8.09089 11.5446 8.14171 11.6014 8.20342 11.6433L13.282 15.2454C13.3637 15.3022 13.4597 15.3328 13.5581 15.3333C13.818 15.3333 14.0319 15.1195 14.0319 14.8581V12.5248ZM22.8101 18.9606C22.85 18.931 22.8849 18.8949 22.9136 18.8537V18.8513C23.0631 18.6376 23.0148 18.3408 22.7986 18.1864L17.72 14.5816C17.6395 14.527 17.5429 14.4961 17.4463 14.4961C17.1864 14.4961 16.9725 14.7074 16.9725 14.971V17.303C16.501 17.3553 15.1141 17.3814 12.8209 17.3814C9.63636 17.3814 8.4377 16.0145 8.07257 15.5981C8.04318 15.5646 8.01919 15.5372 8 15.5172C8.25761 18.4714 9.86305 19.9413 12.8209 19.9223H16.9725V22.3517C16.972 22.4545 17.0043 22.5547 17.0645 22.6366C17.1411 22.7384 17.2528 22.8056 17.3763 22.8242C17.4998 22.8428 17.6254 22.8113 17.7269 22.7364L22.8101 18.9606Z" fill="url(#paint1_linear_2633_6507)"/>
<path d="M14.0319 12.5248L14.0209 12.4254L13.9319 12.4353V12.5248H14.0319ZM22.933 14.2428L22.8573 14.3082L22.8573 14.3082L22.933 14.2428ZM23 14.3187L22.9269 14.387L23.1248 14.5987L23.0996 14.3101L23 14.3187ZM18.179 9.90875V10.0088L18.1795 10.0087L18.179 9.90875ZM14.0273 9.90875H13.9273V10.0087H14.0273V9.90875ZM13.9353 7.1929L14.0154 7.13306L14.0152 7.1328L13.9353 7.1929ZM13.6235 7.00522L13.6384 6.90634V6.90634L13.6235 7.00522ZM13.2729 7.0931L13.2134 7.01266L13.2132 7.01286L13.2729 7.0931ZM8.19421 10.8711L8.25239 10.9524L8.2539 10.9513L8.19421 10.8711ZM8.05021 11.0404L8.13967 11.0851H8.13967L8.05021 11.0404ZM8.00003 11.2597L7.90004 11.2609L8.00003 11.2597ZM8.05542 11.4777L8.14377 11.4308H8.14377L8.05542 11.4777ZM8.20342 11.6433L8.26128 11.5617L8.25954 11.5605L8.20342 11.6433ZM13.282 15.2454L13.2242 15.327L13.2249 15.3275L13.282 15.2454ZM13.5581 15.3333L13.5575 15.4333H13.5581V15.3333ZM22.9136 18.8537L22.9957 18.9108L23.0136 18.885V18.8537H22.9136ZM22.8101 18.9606L22.7505 18.8802L22.7504 18.8803L22.8101 18.9606ZM22.9136 18.8513L22.8316 18.794L22.8136 18.8198V18.8513H22.9136ZM22.7986 18.1864L22.8567 18.105L22.8564 18.1049L22.7986 18.1864ZM17.72 14.5816L17.7779 14.5L17.7762 14.4988L17.72 14.5816ZM16.9725 17.303L16.9835 17.4024L17.0725 17.3925V17.303H16.9725ZM8.07257 15.5981L7.99738 15.664L7.99738 15.664L8.07257 15.5981ZM8 15.5172L8.07214 15.448L7.87574 15.2434L7.90038 15.5259L8 15.5172ZM12.8209 19.9223V19.8223L12.8203 19.8223L12.8209 19.9223ZM16.9725 19.9223H17.0725V19.8223H16.9725V19.9223ZM16.9725 22.3517L17.0725 22.3522V22.3517H16.9725ZM17.0645 22.6366L16.9839 22.6958L16.9846 22.6968L17.0645 22.6366ZM17.3763 22.8242L17.3614 22.9231H17.3614L17.3763 22.8242ZM17.7269 22.7364L17.7863 22.8168L17.7866 22.8167L17.7269 22.7364ZM18.1813 12.3464C15.8931 12.3464 14.4993 12.3724 14.0209 12.4254L14.0429 12.6242C14.5075 12.5727 15.8876 12.5464 18.1813 12.5464V12.3464ZM23.0086 14.1774C22.8264 13.9665 22.4286 13.5067 21.6694 13.1009C20.9104 12.6952 19.7957 12.3464 18.1813 12.3464V12.5464C19.7656 12.5464 20.8475 12.8884 21.5751 13.2773C22.3024 13.666 22.6811 14.1043 22.8573 14.3082L23.0086 14.1774ZM23.0731 14.2505C23.0567 14.233 23.036 14.209 23.0086 14.1774L22.8573 14.3082C22.8837 14.3387 22.9073 14.3661 22.9269 14.387L23.0731 14.2505ZM18.1795 10.0087C19.6436 10.0005 20.7568 10.3601 21.5354 11.0728C22.3142 11.7857 22.7729 12.8653 22.9004 14.3274L23.0996 14.3101C22.9694 12.8164 22.4978 11.6827 21.6705 10.9253C20.8431 10.1679 19.6746 9.80035 18.1784 9.80875L18.1795 10.0087ZM14.0273 10.0087H18.179V9.80875H14.0273V10.0087ZM13.9273 7.47803V9.90875H14.1273V7.47803H13.9273ZM13.8552 7.25273C13.9032 7.31707 13.9273 7.39541 13.9273 7.47803H14.1273C14.1273 7.3563 14.0916 7.23505 14.0154 7.13306L13.8552 7.25273ZM13.6086 7.10411C13.7056 7.11872 13.7942 7.17166 13.8554 7.25299L14.0152 7.1328C13.9233 7.0105 13.7884 6.92894 13.6384 6.90634L13.6086 7.10411ZM13.3323 7.17353C13.4127 7.11412 13.5117 7.0895 13.6086 7.10411L13.6384 6.90634C13.4884 6.88374 13.336 6.9221 13.2134 7.01266L13.3323 7.17353ZM8.2539 10.9513L13.3325 7.17333L13.2132 7.01286L8.13453 10.7908L8.2539 10.9513ZM8.13967 11.0851C8.16636 11.0317 8.20516 10.9862 8.25238 10.9524L8.13604 10.7897C8.06188 10.8428 8.00179 10.9136 7.96076 10.9957L8.13967 11.0851ZM8.10003 11.2585C8.09931 11.1981 8.11298 11.1385 8.13967 11.0851L7.96076 10.9957C7.91974 11.0778 7.89894 11.1688 7.90004 11.2609L8.10003 11.2585ZM8.14377 11.4308C8.11583 11.3781 8.10075 11.319 8.10003 11.2585L7.90004 11.2609C7.90114 11.3529 7.92409 11.4435 7.96707 11.5245L8.14377 11.4308ZM8.25954 11.5605C8.21156 11.528 8.17171 11.4835 8.14377 11.4308L7.96707 11.5245C8.01006 11.6056 8.07185 11.6749 8.14729 11.7261L8.25954 11.5605ZM13.3399 15.1639L8.26127 11.5617L8.14556 11.7249L13.2242 15.327L13.3399 15.1639ZM13.5586 15.2333C13.4807 15.2329 13.4043 15.2087 13.3392 15.1633L13.2249 15.3275C13.323 15.3957 13.4387 15.4327 13.5575 15.4333L13.5586 15.2333ZM13.9319 14.8581C13.9319 15.0644 13.7626 15.2333 13.5581 15.2333V15.4333C13.8734 15.4333 14.1319 15.1745 14.1319 14.8581H13.9319ZM13.9319 12.5248V14.8581H14.1319V12.5248H13.9319ZM22.8314 18.7966C22.809 18.829 22.7816 18.8572 22.7505 18.8802L22.8696 19.0409C22.9183 19.0048 22.9609 18.9608 22.9957 18.9108L22.8314 18.7966ZM22.8136 18.8513V18.8537H23.0136V18.8513H22.8136ZM22.7405 18.2678C22.9117 18.3901 22.9499 18.6249 22.8316 18.794L22.9955 18.9087C23.1762 18.6503 23.1178 18.2915 22.8567 18.105L22.7405 18.2678ZM17.6622 14.6631L22.7407 18.268L22.8564 18.1049L17.7779 14.5L17.6622 14.6631ZM17.4463 14.5961C17.522 14.5961 17.5992 14.6205 17.6639 14.6643L17.7762 14.4988C17.6799 14.4335 17.5638 14.3961 17.4463 14.3961V14.5961ZM17.0725 14.971C17.0725 14.7629 17.2415 14.5961 17.4463 14.5961V14.3961C17.1314 14.3961 16.8725 14.652 16.8725 14.971H17.0725ZM17.0725 17.303V14.971H16.8725V17.303H17.0725ZM12.8209 17.4814C15.1113 17.4814 16.5051 17.4554 16.9835 17.4024L16.9615 17.2036C16.4969 17.2551 15.1168 17.2814 12.8209 17.2814V17.4814ZM7.99738 15.664C8.18294 15.8756 8.5834 16.3321 9.34265 16.7342C10.1016 17.1363 11.2137 17.4814 12.8209 17.4814V17.2814C11.2436 17.2814 10.164 16.943 9.43627 16.5575C8.70878 16.1721 8.32733 15.7369 8.14776 15.5322L7.99738 15.664ZM7.92786 15.5865C7.94512 15.6045 7.96738 15.6298 7.99738 15.664L8.14776 15.5322C8.11898 15.4993 8.09326 15.47 8.07214 15.448L7.92786 15.5865ZM12.8203 19.8223C11.3574 19.8317 10.2442 19.473 9.46533 18.7609C8.68637 18.0488 8.22705 16.9698 8.09962 15.5085L7.90038 15.5259C8.03056 17.0188 8.50276 18.1519 9.33038 18.9085C10.1581 19.6652 11.3266 20.0319 12.8216 20.0223L12.8203 19.8223ZM16.9725 19.8223H12.8209V20.0223H16.9725V19.8223ZM17.0725 22.3517V19.9223H16.8725V22.3517H17.0725ZM17.1451 22.5775C17.0978 22.513 17.0721 22.4338 17.0725 22.3522L16.8725 22.3512C16.8719 22.4752 16.9109 22.5963 16.9839 22.6958L17.1451 22.5775ZM17.3912 22.7253C17.2942 22.7107 17.2056 22.6578 17.1444 22.5765L16.9846 22.6968C17.0766 22.819 17.2114 22.9005 17.3614 22.9231L17.3912 22.7253ZM17.6675 22.6559C17.5871 22.7153 17.4881 22.7399 17.3912 22.7253L17.3614 22.9231C17.5114 22.9457 17.6637 22.9073 17.7863 22.8168L17.6675 22.6559ZM22.7504 18.8803L17.6673 22.6561L17.7866 22.8167L22.8697 19.0408L22.7504 18.8803Z" fill="white" mask="url(#path-2-inside-1_2633_6507)"/>
<defs>
<linearGradient id="paint0_linear_2633_6507" x1="14.2676" y1="27.6244" x2="14.8887" y2="-0.00250307" gradientUnits="userSpaceOnUse">
<stop stop-color="#586BF9"/>
<stop offset="0.448762" stop-color="#3870FF"/>
<stop offset="1" stop-color="#73B9FF"/>
</linearGradient>
<linearGradient id="paint1_linear_2633_6507" x1="9.3125" y1="7" x2="13.7087" y2="17.231" gradientUnits="userSpaceOnUse">
<stop stop-color="white"/>
<stop offset="0.7" stop-color="white" stop-opacity="0.74"/>
<stop offset="1" stop-color="#FFFEFB" stop-opacity="0.86"/>
</linearGradient>
</defs>
</svg>
