<svg width="22" height="23" viewBox="0 0 22 23" fill="none" xmlns="http://www.w3.org/2000/svg">
<path fill-rule="evenodd" clip-rule="evenodd" d="M0 5.425C0 5.28693 0.111928 5.175 0.25 5.175H4.225V4.075C4.225 2 5.5 0.5 7.25 0.5H14.75C16.75 0.5 17.775 2.25 17.775 4.075V5.175H21.75C21.8881 5.175 22 5.28693 22 5.425V7.575C22 7.71307 21.8881 7.825 21.75 7.825H0.25C0.111929 7.825 0 7.71307 0 7.575V5.425ZM15.075 5.175H6.925V4.575C6.925 3.475 7.2 3.2 8.3 3.2H13.7C14.8 3.2 15.075 3.475 15.075 4.575V5.175Z" fill="white"/>
<path fill-rule="evenodd" clip-rule="evenodd" d="M18.975 8.425V18.875C18.975 21.7607 18.2357 22.5 15.35 22.5H6.65C3.76431 22.5 3.025 21.7607 3.025 18.875V8.425H18.975ZM9.35 12.025C9.35 11.8869 9.23807 11.775 9.1 11.775H7.4C7.26193 11.775 7.15 11.8869 7.15 12.025V18.125C7.15 18.2631 7.26193 18.375 7.4 18.375H9.1C9.23807 18.375 9.35 18.2631 9.35 18.125V12.025ZM14.85 12.025C14.85 11.8869 14.7381 11.775 14.6 11.775H12.9C12.7619 11.775 12.65 11.8869 12.65 12.025V18.125C12.65 18.2631 12.7619 18.375 12.9 18.375H14.6C14.7381 18.375 14.85 18.2631 14.85 18.125V12.025Z" fill="white"/>
</svg>
