<svg width="18" height="18" viewBox="0 0 18 18" fill="none" xmlns="http://www.w3.org/2000/svg">
<path d="M17.8061 1.34759C17.4326 0.529412 16.5789 0 15.5652 0H2.43942C1.479 0 0.625289 0.481284 0.198436 1.29947C-0.175061 2.11765 -0.014991 2.98396 0.625289 3.65775L5.58746 8.61497V13.0428C5.58746 13.5241 5.58746 14.1016 5.80089 14.5829C5.74753 14.8717 5.9076 15.1604 6.17439 15.3048L10.9765 17.9037C11.0832 17.9519 11.2433 18 11.4033 18C11.6701 18 11.9369 17.8556 12.097 17.6631C12.1503 17.5668 12.2037 17.4225 12.2037 17.2781C12.257 17.1818 12.257 17.1337 12.257 17.0374V8.3262L17.2726 3.80214C18.0196 3.12834 18.1796 2.2139 17.8061 1.34759ZM16.1521 2.74332L10.8698 7.50802C10.7097 7.65241 10.6563 7.84492 10.6563 8.03743V16.123L7.56166 14.4385C7.24152 14.246 7.18816 13.861 7.18816 13.0909V8.37433C7.18816 8.18182 7.13481 8.03743 6.97474 7.89305L1.79914 2.69519C1.479 2.35829 1.58571 1.97326 1.63907 1.87701C1.69242 1.78075 1.90585 1.44385 2.38606 1.44385H15.5118C16.0454 1.44385 16.2054 1.78075 16.2588 1.92513C16.3655 2.02139 16.5256 2.40642 16.1521 2.74332Z" fill="black"/>
</svg>
