<svg width="24" height="24" viewBox="0 0 24 24" fill="none" xmlns="http://www.w3.org/2000/svg">
<rect x="0.25" y="0.25" width="23.5" height="23.5" rx="11.75" fill="#F3F4F7"/>
<rect x="0.25" y="0.25" width="23.5" height="23.5" rx="11.75" stroke="#D1D1D1" stroke-width="0.5"/>
<path d="M12.1013 7.264C12.8693 7.264 13.4933 7.468 13.9493 7.9C14.3933 8.308 14.6213 8.872 14.6213 9.592C14.6213 10.132 14.4653 10.6 14.1773 10.996C14.0573 11.14 13.7213 11.452 13.1933 11.92C12.9413 12.136 12.7613 12.352 12.6413 12.568C12.4853 12.832 12.4133 13.132 12.4133 13.456V13.732H11.4413V13.456C11.4413 13.06 11.5133 12.712 11.6693 12.412C11.8253 12.052 12.2333 11.596 12.8813 11.02C13.0733 10.828 13.2053 10.684 13.2893 10.588C13.5173 10.288 13.6373 9.976 13.6373 9.64C13.6373 9.16 13.5053 8.788 13.2413 8.524C12.9533 8.236 12.5573 8.104 12.0533 8.104C11.4653 8.104 11.0213 8.296 10.7213 8.692C10.4693 9.028 10.3373 9.484 10.3373 10.072H9.37734C9.37734 9.232 9.61734 8.56 10.0853 8.056C10.5773 7.528 11.2493 7.264 12.1013 7.264ZM11.9333 14.572C12.1373 14.572 12.3053 14.632 12.4493 14.776C12.5813 14.908 12.6533 15.076 12.6533 15.28C12.6533 15.496 12.5813 15.664 12.4493 15.796C12.3053 15.928 12.1253 16 11.9333 16C11.7173 16 11.5493 15.928 11.4173 15.796C11.2733 15.652 11.2013 15.484 11.2013 15.28C11.2013 15.076 11.2733 14.908 11.4173 14.776C11.5493 14.632 11.7173 14.572 11.9333 14.572Z" fill="#666666"/>
</svg>
