<svg width="21" height="15" viewBox="0 0 21 15" fill="none" xmlns="http://www.w3.org/2000/svg">
<path fill-rule="evenodd" clip-rule="evenodd" d="M6.37132 7.5C6.37132 5.2638 8.17877 3.45092 10.4083 3.45092C12.6377 3.45092 14.4452 5.2638 14.4452 7.5C14.4452 9.7362 12.6377 11.5491 10.4083 11.5491C8.17877 11.5491 6.37132 9.7362 6.37132 7.5ZM7.8393 7.5C7.8393 8.92408 8.98845 10.0767 10.4083 10.0767C11.8281 10.0767 12.9772 8.92408 12.9772 7.5C12.9772 6.07592 11.8281 4.92331 10.4083 4.92331C8.98845 4.92331 7.8393 6.07592 7.8393 7.5Z" fill="#666666"/>
<path fill-rule="evenodd" clip-rule="evenodd" d="M10.5 0C14.9062 0 18.1931 2.31212 20.3675 6.90644C20.5442 7.28604 20.5442 7.71856 20.3675 8.09126C18.1931 12.6879 14.9085 15 10.5 15C6.09378 15 2.8069 12.6879 0.632462 8.09356C0.455846 7.71856 0.455846 7.28144 0.632462 6.90874C2.8069 2.31212 6.09149 0 10.5 0ZM2.18072 7.5C4.09138 11.4617 6.80025 13.3436 10.5 13.3436C14.202 13.3436 16.9109 11.4617 18.8193 7.5C16.9086 3.53834 14.1998 1.65644 10.5 1.65644C6.80025 1.65644 4.09138 3.53834 2.18072 7.5Z" fill="#666666"/>
</svg>
