<svg width="22" height="20" viewBox="0 0 22 20" fill="none" xmlns="http://www.w3.org/2000/svg">
<path d="M18.7128 5.43342C18.3157 5.1086 17.9029 4.80436 17.4759 4.52184L20.5496 1.37912C20.6978 1.22764 20.7811 1.02217 20.7811 0.807923C20.7811 0.593672 20.6979 0.388187 20.5497 0.236672C20.4016 0.0851571 20.2006 2.36807e-05 19.991 4.9395e-09C19.7815 -2.36708e-05 19.5805 0.0850644 19.4323 0.236546L16.0495 3.69507C15.7943 3.56548 15.5372 3.44557 15.2781 3.33533C13.8541 2.72946 12.4139 2.42072 11 2.42072C9.58614 2.42072 8.14537 2.72946 6.7199 3.34165C5.52136 3.85613 4.36602 4.56627 3.286 5.45261C2.13165 6.40004 1.38472 7.28386 0.961256 7.85843C0.323464 8.72432 0 9.44455 0 9.99994C0 10.5553 0.323464 11.2756 0.961256 12.1414C1.38472 12.716 2.13165 13.5998 3.286 14.5473C3.68614 14.8759 4.10214 15.1839 4.53245 15.47L1.4504 18.621C1.30224 18.7725 1.21901 18.978 1.21904 19.1923C1.21906 19.4065 1.30233 19.612 1.45053 19.7635C1.59872 19.9149 1.79971 20 2.00927 20C2.21883 20 2.41979 19.9148 2.56796 19.7633L5.95544 16.3C6.20812 16.4281 6.46327 16.5475 6.72089 16.6582C8.14636 17.2702 9.58515 17.5804 11.001 17.5804C12.4168 17.5804 13.8551 17.2727 15.2791 16.6658C16.4796 16.1543 17.6352 15.448 18.7138 14.5665C20.296 13.2727 22 11.2917 22 9.99994C22 8.70817 20.296 6.72721 18.7128 5.43342ZM4.3443 13.3436C3.54625 12.6973 2.8134 11.9521 2.2803 11.2455C1.7472 10.5389 1.59436 10.1067 1.58078 9.99994C1.59436 9.89315 1.74448 9.46475 2.2803 8.75436C2.81611 8.04398 3.54625 7.30254 4.3443 6.65628C5.55296 5.67729 8.02487 4.03512 11 4.03512C12.4321 4.03512 13.747 4.41152 14.8601 4.91086L13.321 6.48562C12.6362 6.01075 11.8275 5.75751 11 5.75883C8.71254 5.75883 6.85176 7.66127 6.85176 9.99994C6.85047 10.8459 7.09816 11.6728 7.56264 12.3729L5.68013 14.2976C5.21654 14.0073 4.77045 13.6887 4.3443 13.3436ZM13.568 9.99994C13.5679 10.4494 13.455 10.8914 13.24 11.2835C13.025 11.6756 12.7152 12.0046 12.3402 12.2392C11.9651 12.4738 11.5375 12.606 11.0982 12.6232C10.6588 12.6404 10.2225 12.542 9.83109 12.3373L13.2862 8.80485C13.4718 9.17461 13.5684 9.58433 13.568 9.99994ZM8.43204 9.99994C8.43209 9.55045 8.54501 9.1085 8.75999 8.71641C8.97497 8.32432 9.28481 7.99523 9.65984 7.76065C10.0349 7.52607 10.4625 7.39386 10.9018 7.37668C11.3412 7.3595 11.7775 7.45793 12.1689 7.66253L8.71378 11.195C8.52816 10.8253 8.43158 10.4155 8.43204 9.99994ZM19.734 11.2473C19.2064 11.9541 18.4747 12.6983 17.675 13.3461C16.4665 14.3241 13.9927 15.9648 11 15.9648C9.57083 15.9648 8.2592 15.5861 7.14535 15.0835L8.68019 13.5143C9.36467 13.9889 10.1729 14.2421 11 14.241C13.2875 14.241 15.1482 12.3386 15.1482 9.99994C15.1493 9.15436 14.9016 8.328 14.4374 7.6282L16.3278 5.69521C16.7955 5.98669 17.2454 6.30705 17.675 6.65451C18.4752 7.30229 19.2059 8.04751 19.734 8.75335C20.2701 9.4698 20.4108 9.89896 20.4195 9.99994C20.4108 10.1009 20.2701 10.5301 19.734 11.2473Z" fill="#666666"/>
</svg>
