<svg width="280" height="170" viewBox="0 0 280 170" fill="none" xmlns="http://www.w3.org/2000/svg">
<path d="M280 161.29C280 162.434 279.762 163.566 279.298 164.623C278.835 165.68 278.156 166.64 277.299 167.449C275.57 169.082 273.224 170 270.778 170H9.22196C4.12914 170 0 166.1 0 161.29V8.68847C7.35113e-05 7.54573 0.238821 6.41422 0.702571 5.35875C1.16632 4.30327 1.84596 3.34456 2.70258 2.5375C3.5592 1.73045 4.57597 1.09091 5.69466 0.655506C6.81335 0.220102 8.012 -0.00261347 9.22196 0.000111932H270.778C271.989 -0.00570056 273.189 0.214918 274.309 0.649254C275.43 1.08359 276.448 1.72305 277.305 2.53077C278.162 3.33869 278.841 4.29867 279.304 5.35546C279.766 6.41225 280.003 7.54498 280 8.68847V161.29H280Z" fill="#EDF0F9"/>
<path d="M24.4453 35.5184H44.4456V25.8164H24.4453V35.5184ZM24.4453 59.6984H44.4456V49.9961H24.4453V59.6984ZM24.4453 83.8999H44.4456V74.1764H24.4453V83.8999ZM24.4453 152.74H80.0011V141.984H24.4453V152.74ZM243.379 59.9785L244.334 60.5596L245.29 61.2045V62.3226C245.438 65.0759 245.03 67.8307 244.089 70.4329C243.451 72.2266 242.186 73.7482 240.513 74.7352C239.59 78.3012 238.193 81.7362 236.357 84.9543C234.452 88.327 231.385 90.9458 227.691 92.3543C224.285 93.0793 220.795 93.3616 217.313 93.1937C213.986 93.2959 210.663 92.8894 207.467 91.9893C204.065 90.3766 201.308 87.7221 199.623 84.4374C198.009 81.3782 196.757 78.1527 195.89 74.8218C194.157 73.8681 192.839 72.3399 192.179 70.5193C191.199 67.8807 190.768 65.0804 190.911 62.2798V61.1405L191.868 60.5166L192.6 60.0648C191.511 47.0496 191.912 42.2526 196.845 36.7455C206.468 29.0221 228.535 29.3022 238.29 36.293C244.957 42.4893 245.424 49.3725 243.379 59.9785ZM223.157 97.6243L223.313 100.593L221.513 103.433L224.024 119.588L234.335 97.9044L249.89 97.3875C258.001 104.896 263.223 122.579 261.913 134.11H174.579C174.801 123.977 176.801 106.682 187.001 97.8834L201.179 98.0117L214.511 119.524L216.956 103.434L215.135 100.508L215.29 97.5393C217.911 97.3742 220.541 97.4026 223.157 97.6243ZM234.912 55.3743C228.667 56.5581 219.357 57.5261 212.067 53.5674C209.223 52.0185 205.113 55.2027 201.734 54.8798C200.666 56.9651 199.918 59.19 199.512 61.4843L199.134 63.4413L197.113 63.2476C196.722 63.2055 196.327 63.2497 195.957 63.377L195.424 63.5928C195.367 65.4359 195.661 67.2734 196.29 69.0137C196.47 69.5109 196.764 69.9624 197.148 70.3347C197.533 70.707 198 70.9906 198.513 71.1644L199.69 71.5306L200.002 72.6711C200.817 76.026 202.04 79.2753 203.646 82.351C204.884 84.8135 206.921 86.8158 209.446 88.052C212.076 88.6788 214.783 88.9538 217.49 88.8694C220.467 89.0252 223.453 88.8227 226.379 88.2676C229.115 87.2056 231.379 85.2492 232.779 82.7384C234.528 79.5437 235.85 76.1462 236.712 72.6281L237.001 71.5309L238.113 71.1438C238.606 70.93 239.047 70.6156 239.403 70.2221C239.76 69.8286 240.025 69.3652 240.179 68.8636C240.789 67.1839 241.097 65.4156 241.09 63.6353L240.601 63.4416C240.229 63.32 239.838 63.262 239.445 63.2702L237.489 63.3997L237.134 61.5055C236.671 59.3772 235.924 57.3162 234.912 55.3743ZM53.3338 35.9709H113.757V25.8164H53.3338V35.9709ZM53.3338 61.2685H113.757V51.0941H53.3338V61.2685ZM53.3338 86.5669H113.757V76.3922H53.3338V86.5669ZM85.3792 152.74H176.268V142.564H85.3792V152.74Z" fill="#DDDFEB"/>
</svg>
