<svg width="280" height="170" viewBox="0 0 280 170" fill="none" xmlns="http://www.w3.org/2000/svg">
<path d="M280 161.285C280.003 162.426 279.767 163.558 279.305 164.614C278.843 165.67 278.164 166.63 277.307 167.439C276.451 168.248 275.433 168.891 274.312 169.33C273.191 169.77 271.989 169.997 270.774 170H9.22717C4.12423 169.979 0 166.082 0 161.285V8.67385C0.0243066 3.89278 4.14148 0.0220701 9.22717 0H270.774C271.986 0.00248128 273.185 0.229417 274.303 0.667835C275.421 1.10625 276.436 1.74756 277.291 2.55508C278.146 3.36237 278.823 4.32017 279.284 5.37372C279.745 6.42727 279.981 7.55592 279.978 8.69514V161.284L280 161.285Z" fill="#EDF0F9"/>
<path fill-rule="evenodd" clip-rule="evenodd" d="M32.9247 66.5388C38.216 73.4375 46.6786 77.9056 56.2154 77.9056C64.9087 77.9056 72.7093 74.193 78.029 68.311C78.3319 69.2478 78.5096 70.2397 78.5427 71.269V71.5723H78.5424C78.5224 73.0258 78.2059 74.461 77.6111 75.7948C77.0163 77.1286 76.1551 78.3346 75.0774 79.3429C73.9997 80.3515 72.727 81.1425 71.3327 81.6703C69.9384 82.1981 68.4502 82.4521 66.9542 82.4177H43.2421C41.747 82.4493 40.2602 82.1933 38.8672 81.6645C37.4743 81.1357 36.2028 80.3446 35.1258 79.3366C34.0488 78.3287 33.1877 77.1238 32.5919 75.7913C31.9961 74.4587 31.6775 73.0249 31.6543 71.5723V71.3335C31.6995 69.6035 32.1536 67.9769 32.9247 66.5388ZM248.235 46.8246H106.832V36.6953H248.235V46.8246ZM248.235 77.06H106.832V66.931H248.235V77.06ZM90.5995 149.483H29.4209V139.375H90.5995V149.483ZM248.235 149.483H102.055V139.375H248.235V149.483Z" fill="#DDDFEB"/>
<path fill-rule="evenodd" clip-rule="evenodd" d="M56.2137 77.9095C40.1831 77.9095 27.1875 65.2848 27.1875 49.7123C27.1874 46.0095 27.9382 42.3428 29.3969 38.9218C30.8556 35.5008 32.9936 32.3924 35.689 29.7741C38.3843 27.1557 41.5842 25.0788 45.1058 23.6618C48.6275 22.2448 52.402 21.5155 56.2137 21.5156C72.244 21.5156 85.24 34.1399 85.24 49.7123C85.24 65.2848 72.2446 77.9095 56.2137 77.9095ZM46.8157 71.753C37.6378 68.0607 31.6533 59.3604 31.6533 49.7105C31.6533 36.5338 42.6498 25.8514 56.2138 25.8516C66.1477 25.8516 75.1033 31.6639 78.9048 40.5795C82.7072 49.4949 80.6049 59.7577 73.581 66.5817C66.5567 73.4045 55.9931 75.4467 46.8157 71.753Z" fill="#DDDFEB"/>
<path fill-rule="evenodd" clip-rule="evenodd" d="M55.9006 32.2755L57.7761 33.1431L57.4197 31.2995L58.9601 29.9767L56.8393 29.6945L55.901 28.0234L54.9412 29.6945L52.8423 29.9767L54.3829 31.2995L54.0025 33.1431L55.9006 32.2755ZM43.0397 34.9646L44.5588 35.6581L44.2232 34.1617L45.4507 33.099L43.7538 32.8818L43.0181 31.5375L42.2807 32.904L40.5837 33.1204L41.8122 34.1834L41.5216 35.6581L43.0397 34.9646ZM69.4316 34.9646L70.9492 35.6581L70.6149 34.1617L71.843 33.099L70.1465 32.8818L69.4089 31.5375L68.6725 32.904L66.9758 33.1204L68.2035 34.1834L67.9129 35.6581L69.4316 34.9646ZM61.3927 40.3219L62.9118 41.038L62.5771 39.5198L63.8049 38.4569L62.1307 38.2392L61.3715 36.8954L60.6341 38.2617L58.9367 38.4781L60.1652 39.541L59.8981 41.038L61.3927 40.3219ZM50.2296 40.3219L51.7473 41.038L51.4131 39.5198L52.6412 38.4569L50.9666 38.2392L50.2069 36.8954L49.4705 38.2617L47.7736 38.4781L49.0015 39.541L48.734 41.038L50.2296 40.3219ZM74.0749 60.559H36.1182L38.016 56.221H42.2967L44.1119 51.4688H66.1719L67.8673 56.221H72.8252L74.0749 60.559Z" fill="#DDDFEB"/>
</svg>
