<svg width="46" height="41" viewBox="0 0 46 41" fill="none" xmlns="http://www.w3.org/2000/svg">
<path d="M9.93124 33.242C10.231 33.7642 10.5989 34.0289 11.025 34.0289C11.2761 34.0289 11.5389 33.9325 11.8063 33.7426L17.7898 29.8356C18.6644 29.344 19.0863 28.7136 19.0437 27.9622L19.0193 27.5319L18.6386 27.7204C18.6084 27.7354 18.5785 27.7424 18.5444 27.7424C18.3912 27.7424 17.9391 27.59 17.0498 26.1785L16.8975 25.9367L16.2162 26.3815L16.3532 26.6195C16.7756 27.3539 17.083 27.9375 17.2665 28.3536C17.3242 28.4852 17.4442 28.7588 16.8651 29.0968L11.6765 32.4842L11.6649 32.4923C11.4425 32.6539 11.3039 32.6878 11.2269 32.6878C11.1843 32.6878 11.0846 32.6878 10.9744 32.4822L8.97823 29.3124L13.9818 26.0453L14.4139 26.7312L15.2881 25.5823L15.1632 25.4079C14.84 24.9567 14.2026 23.977 13.2678 22.495L13.5799 21.7349L11.8283 21.6254L11.7681 22.4587L4.96348 26.9018L6.45226 27.14L6.55422 27.0314C6.8047 26.7645 7.11088 26.5124 7.46417 26.2817L12.1876 23.1975L13.5297 25.3277L8.58668 28.5553L8.85646 27.7785L6.7226 28.3002L6.97754 28.6492C7.26769 29.0465 8.26155 30.5919 9.93124 33.242Z" fill="#0BAC68"/>
<path d="M20.4109 28.4434L20.9604 28.9402L21.1481 28.7334C22.1601 27.6189 22.7979 26.7467 23.0982 26.0666C23.4062 25.3682 23.4846 24.6584 23.3312 23.9565C23.2001 23.3591 22.9701 22.6967 22.6469 21.9845L23.7537 21.2619L25.371 23.8289C25.6867 24.3302 26.0868 24.4353 26.367 24.4353C26.7005 24.4353 27.0614 24.2965 27.4701 24.0109L29.446 22.7206C30.1839 22.2785 30.5487 21.7254 30.5305 21.0765L30.5202 20.7141L30.176 20.8071C29.9007 20.8816 29.6952 20.8162 29.5071 20.5886C29.2507 20.2784 28.9781 19.9259 28.6971 19.5413L28.54 19.3262L27.9171 19.7329L28.055 19.9712C28.6156 20.9396 28.7948 21.3371 28.8462 21.4993C28.866 21.5622 28.907 21.6925 28.6672 21.8859L27.0823 22.9208C26.8241 23.0895 26.6655 23.1248 26.5779 23.1248C26.5018 23.1248 26.4202 23.1034 26.3378 22.948L24.8325 20.5574L28.4985 18.1638L26.0955 17.7789L25.7782 18.9272L17.91 24.0648L19.3118 24.2891L19.9511 23.7447L21.5297 22.7141C21.9933 23.6666 22.2154 24.4884 22.1905 25.1598C22.163 25.8836 21.6211 26.9167 20.5799 28.2302L20.4109 28.4434Z" fill="#0BAC68"/>
<path d="M17.2395 22.0358C17.3029 22.1363 17.4125 22.1939 17.5401 22.1938C17.6496 22.1938 17.7835 22.1525 17.9735 22.06C18.1296 21.9846 18.2575 21.8801 18.3541 21.7507L19.497 21.9335L19.5994 21.8128C19.7905 21.5878 20.079 21.3487 20.4568 21.102L25.827 17.5955L23.6271 17.2432L23.3655 18.1899L18.5364 21.3431C18.6052 21.0328 18.5695 20.7635 18.4302 20.5423C18.399 20.4928 18.3537 20.4362 18.2909 20.3688L24.7756 16.1347L24.9095 17.1632L25.5919 17.1383L25.6151 16.8872C25.6903 16.0725 25.8993 15.5161 26.2363 15.2335L26.7396 14.8115L24.6284 14.5354L24.5052 15.2983L21.6647 17.153C21.6544 16.955 21.6066 16.79 21.5201 16.6527C21.3914 16.4484 21.1549 16.3212 20.7972 16.2639C20.4894 16.2147 20.0332 16.2478 19.3684 16.3664L19.1934 16.3976L19.0342 16.9756L19.2968 17.0582C19.8598 17.2352 20.3045 17.4569 20.6189 17.7173C20.6429 17.7414 20.6674 17.7649 20.6924 17.788L17.7525 19.7076L17.4145 19.2676L16.7829 19.68L16.8747 19.9026C17.0207 20.2566 17.1166 20.5753 17.1596 20.8493C17.2002 21.1119 17.202 21.3531 17.1648 21.5664C17.1235 21.7304 17.1491 21.8923 17.2395 22.0358Z" fill="#0BAC68"/>
<path fill-rule="evenodd" clip-rule="evenodd" d="M31.5161 21.352L32.1444 21.5908L32.2429 21.3209C32.8305 19.7115 32.5192 17.7902 31.3174 15.6067L32.87 14.593C33.6653 16.0026 33.9064 16.5068 33.9656 16.6782C34.0295 16.8641 33.9759 16.8906 33.9072 16.9245C33.6877 17.0336 33.2951 17.2203 32.6717 17.512L32.3768 17.65L32.7602 18.2584L32.9573 18.2074C33.6779 18.0211 34.1879 18.0442 34.4228 18.2732L34.6542 18.4989L34.8448 18.2365C35.1863 17.7662 35.3525 17.3219 35.3386 16.9156C35.3292 16.6499 35.1676 16.0736 34.0069 13.9705L34.3136 13.2236L32.6995 13.0224L32.5263 13.8045L30.8826 14.8778L30.0395 13.4679L33.0006 11.5344C34.2332 13.099 35.4201 14.195 36.534 14.7974C36.3846 15.8574 35.973 17.0564 35.3088 18.3653L35.2082 18.5637L35.7451 19.049L35.9284 18.795C36.6956 17.7316 37.2749 16.5188 37.6527 15.1861C38.3655 15.366 38.989 15.457 39.5092 15.457C39.8239 15.457 40.1093 15.4238 40.3578 15.3582C41.0647 15.1711 41.5016 15.0136 41.7327 14.8627C41.9157 14.7433 41.9493 14.5999 41.9453 14.5007C41.9413 14.401 41.8954 14.2601 41.7005 14.1548L41.6886 14.1487C41.4444 14.0317 41.2594 13.8695 41.1231 13.6532C40.9664 13.4045 40.692 12.8407 40.3075 11.9774L40.1992 11.7345L39.5131 11.991L40.0386 13.9554C39.8167 13.9864 39.587 14.002 39.3524 14.002C38.908 14.0019 38.432 13.946 37.9347 13.8357C37.9983 12.8843 37.9497 11.7713 37.79 10.5217L38.2547 9.73619L36.1128 9.6823L36.1876 10.0385C36.349 10.8067 36.4711 11.5148 36.5503 12.1431C36.6031 12.5641 36.631 12.9468 36.6339 13.2865C35.9234 12.8268 35.083 11.9931 34.127 10.7991L38.3267 8.05691L35.9914 7.683L35.8021 8.36826C35.7964 8.27692 35.7776 8.18168 35.7458 8.08282C35.6772 7.86924 35.4844 7.60068 34.9542 7.53468C34.8454 7.52147 34.716 7.51509 34.5584 7.51509C34.2321 7.51509 33.7852 7.54404 33.2299 7.60109L33.0386 7.62073L32.8537 8.29071L32.8787 8.29754L30.8325 8.80972L31.1096 9.16093C31.5598 9.732 32.009 10.304 32.4571 10.8769L29.4488 12.8411L28.0469 13.0601L28.3267 13.443C28.6167 13.8402 28.9417 14.324 29.2927 14.881C29.6497 15.4477 30.1594 16.3052 30.8074 17.4297C31.4268 18.5045 31.6725 19.75 31.5376 21.1319L31.5161 21.352ZM33.6238 10.115C33.345 9.75663 33.0996 9.41346 32.8916 9.0912L33.0463 8.34333L33.1296 8.36602C34.1072 8.6325 34.5054 8.85252 34.6672 8.99073C34.787 9.0989 34.9012 9.17099 35.0125 9.20827L33.6238 10.115Z" fill="#0BAC68"/>
<path fill-rule="evenodd" clip-rule="evenodd" d="M45.68 13.8876L38.6905 2.66825C38.0802 1.68992 36.8048 1.40045 35.8409 2.01637L0.958356 24.4814C-0.00288566 25.1028 -0.286998 26.4011 0.316719 27.3768L7.30622 38.5976C7.91659 39.5734 9.19191 39.8627 10.1532 39.2468L45.037 16.7833C46.0009 16.1616 46.2905 14.8649 45.68 13.8876ZM44.2878 15.5775L9.40396 38.044C9.09542 38.2419 8.69157 38.1492 8.49718 37.8364L1.50768 26.6157C1.31323 26.3015 1.4043 25.8918 1.71285 25.6912L36.598 3.2261C36.9069 3.02952 37.312 3.12241 37.5035 3.4352L44.4959 14.6558C44.6835 14.9632 44.5911 15.3756 44.2878 15.5775Z" fill="#0BAC68"/>
<path d="M14.2168 8.45803L14.7961 9.87237L15.5467 8.54512L17.0462 8.4219L16.036 7.28421L16.38 5.79628L15.0095 6.42346L13.722 5.63021L13.8851 7.1541L12.7431 8.14525L14.2168 8.45803Z" fill="#0BAC68"/>
<path d="M23.0989 4.24752L22.3783 2.90096L21.768 4.30295L20.2861 4.59087L21.4049 5.61229L21.2118 7.13055L22.5169 6.3624L23.878 7.01991L23.5639 5.51963L24.5957 4.40681L23.0989 4.24752Z" fill="#0BAC68"/>
<path d="M36.6404 26.8039L35.4479 25.8709L35.4426 27.4004L34.1972 28.26L35.6315 28.7416L36.0543 30.21L36.9434 28.9741L38.4485 29.017L37.5648 27.7742L38.0746 26.3388L36.6404 26.8039Z" fill="#0BAC68"/>
<path d="M31.773 32.902L31.2048 31.4834L30.4419 32.8053L28.9437 32.916L29.9444 34.0592L29.5882 35.5456L30.9667 34.9326L32.2489 35.7435L32.0979 34.2183L33.2399 33.2287L31.773 32.902Z" fill="#0BAC68"/>
<path d="M22.8568 37.0488L23.5708 38.401L24.1935 37.003L25.6754 36.7333L24.5631 35.7006L24.7672 34.1838L23.4566 34.9382L22.1023 34.2711L22.4041 35.7684L21.3573 36.8772L22.8568 37.0488Z" fill="#0BAC68"/>
<path d="M9.50051 14.386L10.6862 15.3341L10.7038 13.8033L11.9547 12.9479L10.5283 12.4565L10.1164 10.9811L9.2164 12.2088L7.71137 12.1533L8.58289 13.4018L8.06336 14.8413L9.50051 14.386Z" fill="#0BAC68"/>
<path d="M4.20497 20.9948C4.04736 14.5146 7.14314 8.10774 12.9104 4.39429C18.679 0.680789 25.6917 0.57555 31.3882 3.48506L32.7641 2.59915C31.0783 1.64006 29.2647 0.938198 27.3545 0.502194C24.8025 -0.0819024 22.2031 -0.155087 19.6334 0.275345C16.9727 0.723642 14.4576 1.70089 12.1599 3.18324C9.86357 4.66554 7.91659 6.55897 6.38024 8.81505C4.89287 10.9908 3.84744 13.4144 3.27233 16.0081C2.84405 17.9498 2.69175 19.918 2.82509 21.8794L4.20497 20.9948Z" fill="#0BAC68"/>
<path d="M41.6653 20.0039C41.8297 26.4842 38.7339 32.891 32.9667 36.6032C27.1994 40.3207 20.1854 40.4232 14.4902 37.5138L13.1116 38.401C14.7974 39.3573 16.6123 40.0607 18.5228 40.4966C21.0745 41.0807 23.674 41.1568 26.2436 40.7234C28.9043 40.2751 31.4195 39.2992 33.7158 37.8168C36.0122 36.3345 37.9591 34.4411 39.4968 32.1864C40.9787 30.0079 42.0241 27.5859 42.5979 24.9934C43.0274 23.0502 43.1771 21.0807 43.0438 19.1193L41.6653 20.0039Z" fill="#0BAC68"/>
<path d="M17.0706 11.0767C18.6858 10.0387 20.4627 9.48485 22.2465 9.37421L24.3755 8.00387C21.5625 7.66616 18.7456 8.31126 16.3147 9.87392C13.8906 11.435 12.1136 13.7534 11.2122 16.4827L13.3399 15.1126C14.2047 13.5125 15.4569 12.1174 17.0706 11.0767Z" fill="#0BAC68"/>
<path d="M28.8051 29.9207C27.1898 30.9617 25.4144 31.5153 23.6305 31.6259L21.5027 32.9963C24.3145 33.334 27.1301 32.6875 29.5622 31.1248C31.9864 29.5651 33.7634 27.2453 34.6634 24.516L32.537 25.8891C31.6723 27.4821 30.4188 28.8827 28.8051 29.9207Z" fill="#0BAC68"/>
</svg>
