<svg width="100" height="72" viewBox="0 0 100 72" fill="none" xmlns="http://www.w3.org/2000/svg">
<path d="M63.6709 0.791988C62.734 -0.201348 61.1801 -0.200299 60.2445 0.7943L28.7954 34.2262C27.8867 35.1922 27.9094 36.729 28.8463 37.6664L62.4683 71.3058C63.3934 72.2314 64.8701 72.2314 65.7951 71.3058L99.2822 37.8015C100.27 36.8127 100.233 35.1725 99.2014 34.2317L78.2831 15.1602C77.34 14.3004 75.9062 14.3441 75.0147 15.2599L56.6068 34.1684C55.6495 35.1518 55.6849 36.7547 56.6848 37.6925L62.4713 43.1201C63.4031 43.9941 64.8385 43.9704 65.7424 43.0661L71.0872 37.7186C72.0443 36.761 72.0443 35.1835 71.0872 34.2259L70.2276 33.3659C69.2705 32.4083 69.2705 30.8308 70.2276 29.8732L71.1692 28.9311C72.0943 28.0055 73.5709 28.0055 74.496 28.9311L79.8402 34.278C80.7771 35.2154 80.7998 36.7522 79.891 37.7182L65.8181 52.6784C64.8923 53.6626 63.3583 53.6755 62.4169 52.707L47.8103 37.6804C46.8901 36.7337 46.8839 35.2045 47.7964 34.2499L70.0505 10.9722C70.9533 10.0279 70.9583 8.51854 70.0618 7.56798L63.6709 0.791988Z" fill="url(#paint0_linear_3120_12427)"/>
<path d="M36.6031 0.71981C35.6721 -0.239934 34.1569 -0.239938 33.2258 0.719806L0.69259 34.2563C-0.230862 35.2082 -0.230864 36.7457 0.692588 37.6977L33.2258 71.2341C34.1569 72.1939 35.6721 72.1939 36.6031 71.2341L43.0337 64.6052C43.9572 63.6533 43.9572 62.1157 43.0338 61.1638L20.2696 37.6977C19.3461 36.7458 19.3461 35.2082 20.2696 34.2563L43.0337 10.7901C43.9572 9.8382 43.9572 8.30063 43.0337 7.3487L36.6031 0.71981Z" fill="url(#paint1_linear_3120_12427)"/>
<defs>
<linearGradient id="paint0_linear_3120_12427" x1="18.8889" y1="10.5231" x2="68.7031" y2="72.1502" gradientUnits="userSpaceOnUse">
<stop offset="0.05" stop-color="#5898F9"/>
<stop offset="0.635" stop-color="#3246DE"/>
<stop offset="1" stop-color="#9A4BFF"/>
</linearGradient>
<linearGradient id="paint1_linear_3120_12427" x1="18.8889" y1="10.5231" x2="68.7031" y2="72.1502" gradientUnits="userSpaceOnUse">
<stop offset="0.05" stop-color="#5898F9"/>
<stop offset="0.635" stop-color="#3246DE"/>
<stop offset="1" stop-color="#9A4BFF"/>
</linearGradient>
</defs>
</svg>
