<svg width="160" height="160" viewBox="0 0 160 160" fill="none" xmlns="http://www.w3.org/2000/svg">
<path d="M86.6211 124.824V122.188H82.6172C82.6823 121.927 82.8125 121.536 83.0078 121.016L83.3008 119.844L80.3711 119.16C79.7201 121.895 78.776 124.401 77.5391 126.68C77.9297 127.917 78.2552 129.154 78.5156 130.391C78.8411 130 79.1341 129.544 79.3945 129.023H80.5664V131.367H77.832V134.004H80.5664V137.715C80.5664 138.561 80.3385 139.212 79.8828 139.668L81.6406 141.914C81.9661 141.589 82.3893 141.263 82.9102 140.938C83.6263 140.417 84.8633 139.668 86.6211 138.691C86.8164 138.561 86.9792 138.464 87.1094 138.398C86.9141 137.487 86.7513 136.543 86.6211 135.566C85.5143 136.152 84.5052 136.706 83.5938 137.227V134.004H86.5234V131.367H83.5938V129.023H86.1328V126.387H80.8594L81.1523 125.801C81.3477 125.41 81.4779 125.085 81.543 124.824H86.6211Z" fill="#586BF9"/>
<path d="M86.8164 129.512L87.3047 132.344L90.332 131.953C90.5924 133.711 90.9505 135.241 91.4062 136.543C89.6484 137.715 87.6628 138.691 85.4492 139.473C86.2305 140.449 86.849 141.328 87.3047 142.109C89.3229 141.133 91.1133 140.221 92.6758 139.375C92.806 139.44 92.9688 139.635 93.1641 139.961L93.75 140.547C94.6615 141.458 95.8333 141.914 97.2656 141.914C98.3724 141.914 99.1536 141.393 99.6094 140.352C100 139.375 100.391 138.073 100.781 136.445C99.9349 136.055 99.0885 135.632 98.2422 135.176C98.0469 136.283 97.819 137.324 97.5586 138.301C97.4935 138.626 97.2982 138.789 96.9727 138.789C96.7122 138.789 96.4844 138.724 96.2891 138.594L95.3125 137.617C95.2474 137.552 95.2148 137.487 95.2148 137.422C96.7122 136.055 98.1771 134.557 99.6094 132.93L97.168 131.172C96.1263 132.344 96.0286 132.441 96.875 131.465C95.638 132.832 94.694 133.841 94.043 134.492C93.7826 133.581 93.5547 132.604 93.3594 131.562L100.195 130.684L99.8047 127.852L92.9688 128.73V127.754C92.9036 127.233 92.8711 126.842 92.8711 126.582L99.8047 125.801L99.5117 123.066L96.3867 123.359L98.0469 121.895C96.875 120.788 95.8333 119.876 94.9219 119.16L93.1641 120.82C93.9453 121.471 94.8568 122.35 95.8984 123.457L92.6758 123.75C92.6107 122.122 92.5781 120.625 92.5781 119.258H89.4531C89.4531 121.341 89.5182 122.969 89.6484 124.141L86.8164 124.434L87.3047 127.266L89.7461 126.973C89.7461 127.233 89.7786 127.591 89.8438 128.047C89.8438 128.503 89.8763 128.861 89.9414 129.121L86.8164 129.512Z" fill="#586BF9"/>
<path fill-rule="evenodd" clip-rule="evenodd" d="M120.02 136.055C121.973 135.924 123.014 134.492 123.145 131.758C123.21 130.195 123.275 127.852 123.34 124.727C123.405 123.164 123.438 121.992 123.438 121.211H110.156C110.482 120.495 110.775 119.811 111.035 119.16H107.324C106.283 121.96 104.72 124.629 102.637 127.168C102.702 127.428 102.832 127.819 103.027 128.34C103.418 129.447 103.743 130.326 104.004 130.977C104.199 130.781 104.46 130.456 104.785 130C105.111 129.609 105.339 129.316 105.469 129.121V137.227C105.469 140.026 106.999 141.426 110.059 141.426H119.727C122.656 141.426 124.349 140.645 124.805 139.082C125.195 137.845 125.488 136.641 125.684 135.469C124.902 135.273 123.926 134.915 122.754 134.395C122.689 135.371 122.526 136.315 122.266 137.227C122.135 138.203 121.322 138.691 119.824 138.691H110.938C109.44 138.691 108.691 137.91 108.691 136.348V134.59H115.43C115.625 135.176 115.723 135.697 115.723 136.152C117.806 136.152 119.238 136.12 120.02 136.055ZM113.77 131.953H108.691V128.828H113.77V131.953ZM117.09 126.191H107.422C107.487 126.061 107.617 125.833 107.812 125.508C108.203 124.922 108.464 124.466 108.594 124.141H120.02C119.954 127.266 119.922 129.74 119.922 131.562C119.857 132.604 119.466 133.125 118.75 133.125C118.555 133.125 118.294 133.092 117.969 133.027H117.09V126.191Z" fill="#586BF9"/>
<path d="M65.332 129.609H75V137.324C73.1771 139.733 70.1823 140.938 66.0156 140.938C59.3099 140.677 55.8268 137.227 55.5664 130.586C55.8268 123.815 59.1797 120.299 65.625 120.039C70.1823 120.104 73.2422 122.09 74.8047 125.996L71.2891 126.973C70.3776 124.434 68.457 123.132 65.5273 123.066C61.4909 123.392 59.3424 125.898 59.082 130.586C59.3424 135.273 61.6211 137.78 65.918 138.105C68.5872 138.105 70.5078 137.422 71.6797 136.055V132.539H65.332V129.609Z" fill="#586BF9"/>
<path d="M49.1211 126.973L52.6367 125.996C51.0091 122.09 48.1771 120.104 44.1406 120.039C37.7604 120.234 34.5052 123.75 34.375 130.586C34.5052 137.357 37.6628 140.807 43.8477 140.938C48.7956 141.003 51.8555 138.757 53.0273 134.199L49.4141 133.32C48.6979 136.576 46.8099 138.171 43.75 138.105C39.9089 137.975 37.9557 135.469 37.8906 130.586C38.0859 125.768 40.1042 123.262 43.9453 123.066C46.4844 123.197 48.2096 124.499 49.1211 126.973Z" fill="#586BF9"/>
<path d="M48.125 71.8931C52.6585 86.0173 66.0073 96.25 81.7691 96.25C96.4827 96.25 109.094 87.333 114.394 74.6574C117.833 66.431 114.394 54.6081 99.9364 58.1426L48.125 71.8931Z" fill="#586BF9" fill-opacity="0.8"/>
<path d="M121.158 73.75C114.776 89.1596 99.5916 100 81.875 100C58.4029 100 39.375 80.9721 39.375 57.5C39.375 34.0279 58.4029 15 81.875 15C91.4989 15 100.376 18.1988 107.5 23.5911C109.511 25.1135 113.75 30 117.5 28.75C117.5 28.75 113.75 36.25 105 36.25C98.2913 36.25 90.968 32.5034 81.8906 32.5C81.8845 32.5 81.875 32.5 81.875 32.5C68.0679 32.5 56.875 43.6929 56.875 57.5C56.875 71.3071 68.0679 82.5 81.875 82.5C89.4783 82.5 96.2888 79.1058 100.874 73.75C110 64.375 121.158 73.75 121.158 73.75Z" fill="url(#paint0_linear_3822_3004)"/>
<defs>
<linearGradient id="paint0_linear_3822_3004" x1="62.8651" y1="15" x2="97.2181" y2="98.903" gradientUnits="userSpaceOnUse">
<stop stop-color="#FED349"/>
<stop offset="1" stop-color="#ED9220"/>
</linearGradient>
</defs>
</svg>
