<svg width="18" height="20" viewBox="0 0 18 20" fill="none" xmlns="http://www.w3.org/2000/svg">
<path d="M17.4484 14.1317L16.3034 12.8954V9.1077C16.3047 7.48991 15.8449 5.91088 14.9863 4.58507C14.1277 3.25925 12.9119 2.25092 11.5042 1.69702C11.1931 1.00146 10.6458 0.462104 9.97594 0.191089C8.6201 -0.357539 7.11326 0.315183 6.49583 1.69702C5.08912 2.25243 3.87439 3.26104 3.01601 4.58637C2.15764 5.9117 1.69707 7.48976 1.69662 9.107V12.8958L0.551639 14.1321C0.288235 14.4166 0.108858 14.7789 0.0361876 15.1734C-0.0364823 15.5679 0.00081908 15.9768 0.143375 16.3485C0.285932 16.7201 0.527341 17.0377 0.837077 17.2612C1.14681 17.4847 1.51097 17.604 1.88349 17.604H6.09055C6.09204 17.741 6.11908 17.8764 6.17005 18.0019C6.41086 18.5959 6.8068 19.1013 7.30942 19.4561C7.81205 19.811 8.39957 20 9.00011 20C9.60065 20 10.1882 19.811 10.6908 19.4561C11.1934 19.1013 11.5894 18.5959 11.8302 18.0019C11.8812 17.8763 11.9081 17.7407 11.9092 17.6035H16.1165C16.489 17.6035 16.8532 17.4842 17.1629 17.2607C17.4727 17.0372 17.7141 16.7196 17.8566 16.348C17.9992 15.9764 18.0365 15.5675 17.9638 15.173C17.8911 14.7785 17.7118 14.4161 17.4484 14.1317ZM7.07373 17.6826C7.06231 17.6881 7.04993 17.6909 7.03743 17.6907V17.6035H7.12687C7.12615 17.6122 7.12434 17.6208 7.12147 17.6289C7.11267 17.6529 7.09553 17.6721 7.07373 17.6826ZM9.00032 18.8829C8.6098 18.8828 8.22743 18.7623 7.8981 18.5357C7.56878 18.309 7.30618 17.9857 7.14113 17.6035H10.8593C10.6943 17.9856 10.4317 18.309 10.1024 18.5356C9.77314 18.7622 9.39081 18.8827 9.00032 18.8829ZM10.9628 17.6907C10.9405 17.6909 10.919 17.682 10.9025 17.6658C10.886 17.6497 10.8757 17.6274 10.8736 17.6035H10.9628V17.6907ZM16.7151 16.2161C16.6367 16.3012 16.5434 16.3686 16.4406 16.4146C16.3379 16.4605 16.2277 16.4841 16.1165 16.4839H1.88371C1.71618 16.4839 1.5524 16.4303 1.41309 16.3299C1.27378 16.2294 1.1652 16.0866 1.10111 15.9194C1.03702 15.7523 1.02029 15.5684 1.05304 15.391C1.08578 15.2136 1.16654 15.0507 1.28508 14.9229L2.73359 13.36V9.10723C2.73223 7.6815 3.1484 6.29181 3.9226 5.13686C4.6968 3.9819 5.78938 3.12081 7.04413 2.67671L7.28026 2.59297L7.36667 2.34152C7.49127 1.98262 7.71435 1.67333 8.0061 1.455C8.29785 1.23666 8.64437 1.11967 8.99935 1.11967C9.35433 1.11967 9.70085 1.23666 9.99261 1.455C10.2844 1.67333 10.5074 1.98262 10.632 2.34152L10.7184 2.5932L10.9567 2.67671C12.2125 3.11891 13.3061 3.97949 14.0805 5.13484C14.855 6.29018 15.2703 7.68083 15.2668 9.107V13.36L16.7143 14.9229C16.8731 15.0943 16.9624 15.3268 16.9626 15.5693C16.9628 15.8118 16.8738 16.0444 16.7151 16.2161Z" fill="white"/>
<path d="M5.66477 6.72538C5.5292 6.6562 5.37374 6.64798 5.23256 6.70252C5.09138 6.75707 4.97603 6.86992 4.91189 7.01626C4.62358 7.67015 4.47483 8.38556 4.47658 9.10977V12.1624C4.47658 12.3243 4.53614 12.4796 4.64217 12.5941C4.74819 12.7086 4.892 12.7729 5.04194 12.7729C5.19188 12.7729 5.33569 12.7086 5.44171 12.5941C5.54774 12.4796 5.6073 12.3243 5.6073 12.1624V9.10977C5.606 8.56689 5.71747 8.0306 5.93352 7.54039L5.9346 7.53829C5.99864 7.39186 6.00619 7.22395 5.95559 7.07151C5.90499 6.91906 5.80038 6.79456 5.66477 6.72538ZM7.70694 4.42893C7.24501 4.57727 6.80817 4.8048 6.41311 5.10282C6.31447 5.17724 6.24038 5.2837 6.20163 5.40671C6.16287 5.52971 6.16145 5.66287 6.19759 5.7868C6.23374 5.91073 6.30554 6.01899 6.40258 6.09583C6.49962 6.17268 6.61683 6.2141 6.73717 6.21407C6.85308 6.21433 6.96624 6.17596 7.06122 6.10421C7.35705 5.88078 7.68429 5.71026 8.03035 5.5992L8.03705 5.59687C8.18049 5.5496 8.30066 5.44275 8.37114 5.29981C8.44161 5.15688 8.45661 4.98957 8.41284 4.83469C8.36906 4.67981 8.2701 4.55005 8.13772 4.47396C8.00534 4.39786 7.85038 4.38167 7.70694 4.42893Z" fill="white"/>
</svg>
